<svg width="192" height="192" viewBox="0 0 192 192" fill="none" xmlns="http://www.w3.org/2000/svg">
<g clip-path="url(#clip0_29236_4)">
<rect width="192" height="192" fill="#EEEEEE"/>
<path d="M45.8554 121.057C42.8308 116.671 41.3845 111.424 41.7449 106.144V84.593C41.3634 79.2742 42.7878 73.9809 45.7967 69.536C48.5175 66.107 53.1662 64.4021 59.743 64.4212C66.3198 64.4404 70.7729 65.9441 73.1022 68.9326C75.9423 72.6359 77.3282 77.2147 77.0071 81.8344V86.8918H64.8518V81.4034C64.8354 79.9593 64.7078 78.5185 64.4701 77.0932C64.3231 76.0614 63.8391 75.1038 63.0901 74.3634C62.6278 73.9754 62.0911 73.6815 61.5113 73.499C60.9316 73.3164 60.3204 73.2489 59.7137 73.3002C58.8423 73.173 57.952 73.3116 57.1639 73.6972C56.3759 74.0828 55.7284 74.6967 55.3096 75.4553C54.5376 77.4733 54.1978 79.6251 54.3113 81.777V109.132C54.1774 111.299 54.5698 113.465 55.4564 115.454C55.88 116.172 56.5086 116.752 57.2649 117.125C58.0213 117.498 58.8724 117.646 59.7137 117.552C60.5403 117.666 61.3828 117.522 62.1209 117.14C62.8591 116.758 63.4551 116.158 63.8242 115.425C64.5344 113.404 64.8433 111.268 64.7343 109.132V103.385H76.8897V108.357C77.2475 113.044 75.9748 117.713 73.2783 121.603C70.6946 124.764 66.2318 126.316 59.8898 126.316C53.5479 126.316 48.586 124.592 45.8554 121.057Z" fill="#111111"/>
<path d="M92.801 65.6842H106.867L118.737 125.053H107.045L104.938 111.935H95.086L92.712 124.968H80.842L92.801 65.6842ZM103.632 104.472L99.8933 80.6111L96.1839 104.472H103.632Z" fill="#111111"/>
<path d="M127.018 74.6305H117.474V65.6842H149.053V74.6305H139.626V125.053H126.989L127.018 74.6305Z" fill="#111111"/>
</g>
<defs>
<clipPath id="clip0_29236_4">
<rect width="192" height="192" fill="white"/>
</clipPath>
</defs>
</svg>
